# xmcd
#
# Track frame offsets:
# 150
# 14813
# 31355
# 44106
# 55709
# 75049
# 86840
# 102487
# 114664
# 132282
# 147434
# 161529
# 180064
# 192454
#
# Disc length: 2726 seconds
#
#
# Revision: 0
# Processed by: cddbd v1.5.2PL0 Copyright (c) Steve Scherf et al.
# Submitted via: FreeRIP 2.951 
#
DISCID=bb0aa40e
DTITLE=Scan Express - Dansveckan i Malung
DYEAR=1900
DGENRE=Dansband
TTITLE0=Scan-Express - På dansveckan i Malung
TTITLE1=Scan-Express - Det var på marknad i Rättvik
TTITLE2=Scan-Express - Lördagskväll
TTITLE3=Scan-Express - I min hjärna har jag inte bara spån
TTITLE4=Scan-Express - Ett sommarsvärmeri
TTITLE5=Scan-Express - Sommer og sol
TTITLE6=Scan-Express - Jonsokkvell på Nygard
TTITLE7=Scan-Express - Drömmepiken
TTITLE8=Scan-Express - Midsommardansen i Särna
TTITLE9=Scan-Express - Buggkurs
TTITLE10=Scan-Express - Kjaerlighet for alti
TTITLE11=Scan-Express - Grisen i sekken
TTITLE12=Scan-Express - Kalle med felan
TTITLE13=Scan-Express - Hvis Engler fins
EXTD=
EXTT0=
EXTT1=
EXTT2=
EXTT3=
EXTT4=
EXTT5=
EXTT6=
EXTT7=
EXTT8=
EXTT9=
EXTT10=
EXTT11=
EXTT12=
EXTT13=
PLAYORDER=
